<?xml version="1.0" standalone="no"?>
<!DOCTYPE svg PUBLIC "-//W3C//DTD SVG 1.1//EN" "http://www.w3.org/Graphics/SVG/1.1/DTD/svg11.dtd" >
<svg xmlns="http://www.w3.org/2000/svg">
<metadata>
<json>
<![CDATA[
{
	"fontFamily": "synthesis-app",
	"majorVersion": 1,
	"minorVersion": 0,
	"version": "Version 1.0",
	"fontId": "synthesis-app",
	"psName": "synthesis-app",
	"subFamily": "Regular",
	"fullName": "synthesis-app",
	"description": "Font generated by IcoMoon."
}
]]>
</json>
</metadata>
<defs>
<font id="synthesis-app" horiz-adv-x="1024">
<font-face units-per-em="1024" ascent="960" descent="-64" />
<missing-glyph horiz-adv-x="1024" />
<glyph unicode="&#x20;" horiz-adv-x="0" d="" />
<glyph unicode="&#x41;" glyph-name="delete" data-tags="delete" d="M234 6c12-40 48-70 92-70 2 0 2 0 4 0v0h364c2 0 2 0 4 0 44 0 80 30 90 70h2l70 680h-696zM652 582c0 18 16 34 34 34 0 0 0 0 0 0 20 0 36-16 36-34l-36-512c0-20-14-34-34-34 0 0 0 0 0 0v0c0 0 0 0 0 0-20 0-34 14-36 34v0zM476 582c0 20 16 34 36 34s36-14 36-34v-512c0-20-16-36-36-36s-36 16-36 36zM338 618c0 0 0 0 0 0 18 0 34-14 34-34v0l36-512c-2-18-16-34-36-34 0 0 0 0 0 0s0 0 0 0c-20 0-34 16-34 34v0l-36 512c0 20 16 34 36 34zM840 824h-154v68c0 52-16 68-70 68h-208c-2 0-4 0-6 0-36 0-64-28-64-64 0-2 0-4 0-4v0-68h-154c0 0-2 0-2 0-30 0-52-22-54-52v0c2-28 24-52 54-52 0 0 2 0 2 0v0h656c0 0 2 0 2 0 30 0 52 24 54 52v0c-2 30-24 52-54 52 0 0-2 0-2 0zM616 824h-208v68h208z" />
<glyph unicode="&#x42;" glyph-name="edit-communication" data-tags="edit-communication" d="M604 304c60 24 108 60 146 108v0c34 40 54 90 54 146v0c0 56-20 108-54 148v0c-38 48-86 84-144 106l-2 2c-56 22-122 36-190 36-4 0-8 0-12 0v0c-2 0-4 0-6 0-70 0-138-14-198-40l2 2c-58-24-108-60-146-106v-2c-34-38-54-90-54-146v0c0-48 16-92 40-128v0c30-42 66-76 110-100l2-2c-4-10-8-18-12-26v2c-4-10-10-16-14-24v2l-12-16c-4-6-8-10-16-18l-12-14v-2h-4v-18c0 0 0 0 0-2 0 0 0 0 0 0v0c0-6 4-10 6-12v0c4-4 8-6 12-6 0 0 0 0 0 0v0c18 4 32 6 46 10h-4c62 14 114 38 162 72l-2-2c30-6 64-8 100-8v0c2-2 4-2 6-2 70 0 138 16 200 42l-4-2zM284 352l-24-18c-10-6-22-14-34-22h-2l20 48-54 32c-34 18-64 44-86 74v2c-20 24-30 56-30 90v0c0 42 18 80 44 108v0c32 36 72 64 118 80l2 2c48 18 102 30 160 30 0 0 2 0 2 0v0c2 0 2 0 2 0 58 0 112-12 164-32l-4 2c50-18 92-46 124-80v0c28-28 44-66 46-108v0c-2-42-18-80-46-108v0c-32-38-72-68-118-86h-2c-48-20-102-30-160-30 0 0-2 0-2 0v0c-30 0-60 2-90 8h2zM986 284c24 34 38 78 38 126 0 50-16 96-44 134v0c-30 42-70 76-116 100h-2c8-26 14-56 14-88 0-52-14-102-40-144h2c-28-48-64-88-108-120v0c-44-32-94-56-148-74h-4c-52-16-112-26-174-26-2 0-2 0-2 0v0c-12 0-28 0-50 0 74-48 162-76 260-76 2 0 6 0 10 0v0c36 0 70 4 104 10h-4c46-32 100-58 158-72l4-2c12-2 30-6 48-8 0 0 2 0 2 0 4 0 8 2 10 4v0c4 2 8 8 8 12v0c0 0 0 4 0 4s0 0 0 4v8c0 2 0 2 0 2s0 2 0 2v0l-2 2c-4 6-8 10-14 16v0c-6 6-12 12-14 16-4 4-8 10-14 16-4 8-8 14-12 22h-2c-2 8-6 16-10 24l-2 2c42 28 76 62 100 104l2 2z" />
<glyph unicode="&#x43;" glyph-name="manage" data-tags="manage" d="M520 886h-22c-12 0-20 10-22 20v0c0 2 0 2 0 4 0 28-22 50-48 50v0c-28 0-50-22-50-50 0 0 0 0 0 0v0c0 0 0-2 0-2 0-10-10-20-22-20h-22c-22-2-42-20-42-44 0 0 0 0 0 0v0c0 0 0-2 0-2 0-24 18-44 42-44v0h186c24 0 42 20 42 44 0 0 0 0 0 0v0c0 0 0 2 0 2 0 24-18 42-42 42zM428 886c-12 0-20 10-22 20v0c0 2 0 2 0 4 0 12 10 20 22 20v0c12 0 22-8 22-22 0-12-10-22-22-22zM522 38h-358c-30 0-56 26-56 58 0 0 0 2 0 2v0 700c0 34 26 60 42 60h116c0-2-2-6-2-8s2-6 2-8v0c0 0 0 0 0 0 0-38 30-70 68-72v0h186c0 0 0 0 0 0 40 0 74 32 74 72 0 0 0 2 0 2v0c0 2 0 4 0 6 0 4 0 6 0 8v0h86c46 0 70-26 70-60v-438h-14c0 0 0 0 0 0-20 0-40-4-58-8h2v344h-500v-584h326c2-28 8-52 16-76zM732 316c-2 0-4 0-6 0-104 0-190-84-190-190 0-104 86-190 190-190 106 0 190 86 190 190v0c0 2 0 2 0 2 0 104-82 186-184 188zM852 166l-112-132c-6-6-14-10-22-10 0 0 0 0 0 0s0 0 0 0c-6 0-14 2-18 6v0l-70 58c-8 6-12 14-12 24 0 6 2 12 6 18v0c6 6 14 10 22 10s14-2 18-6v0l50-40 94 112c6 4 12 8 20 8s16-4 20-8v0c6-6 10-14 10-22s-2-14-6-20zM604 448h-226c0 0 0 0 0 0-8 0-14 6-14 14 0 0 0 0 0 0v0 12c0 2 0 2 0 4 0 8 6 14 14 14 0 0 0 0 0 0h226c0 0 0 0 0 0 8 0 14-6 14-14 0-2 0-2 0-4v0-14c0-6-6-12-14-12 0 0 0 0 0 0zM604 580h-226c0 0 0 0 0 0-8 0-14 6-14 14 0 0 0 0 0 0v0 16c0 0 0 0 0 0 0 8 6 14 14 14 0 0 0 0 0 0h226c0 0 0 0 0 0 8 0 14-6 14-14 0 0 0 0 0 0v0-16c0 0 0 0 0 0 0-8-6-14-14-14 0 0 0 0 0 0zM534 332h-156c0 0 0 0 0 0-8 0-14 6-14 14 0 0 0 0 0 0v0 14c0 0 0 0 0 0 0 8 6 14 14 14 0 0 0 0 0 0h156c8 0 14-6 14-14v-14c0-8-6-14-14-14zM506 200h-128c0 0 0 0 0 0-8 0-14 6-14 14 0 0 0 0 0 0v0 14c0 0 0 0 0 2 0 6 6 14 14 14 0 0 0 0 0 0h128c8-2 14-8 14-16 0 0 0 0 0 0v-14c0 0 0 0 0 0 0-8-6-14-14-14zM336 634l-54-60c-2-4-6-6-10-6 0 0 0 0 0 0v0c0 0-2 0-4 0s-2 0-4 0v0l-32 28c-2 2-4 6-4 10 0 2 2 6 4 8v0c2 4 6 4 10 4 2 0 6 0 8-4v0l22-18 46 54c2 2 4 4 8 4s8-2 10-4c2-2 2-6 2-8 0-4 0-6-2-8zM336 504l-54-60c-2-4-6-6-10-6 0 0 0 0 0 0v0c-2 0-6 2-8 4v0l-32 26c-2 2-4 6-4 10s2 6 4 10v0c2 2 6 4 10 4 2 0 6-2 8-4l22-20 46 52c2 2 4 4 8 4s8-2 10-4v0c2-4 2-6 2-10 0-2 0-4-2-6v0zM336 380l-54-62c-2-2-6-4-10-4 0 0 0 0 0 0v0c-2 0-6 2-8 4v0l-32 26c-2 2-4 6-4 10s2 6 4 8v0c2 4 6 4 10 4 2 0 6 0 8-4v0l22-18 46 50c2 4 4 4 8 4s8 0 10-4v0c2-2 2-4 2-8 0-2 0-4-2-8zM336 254l-54-60c-2-4-6-6-10-6 0 0 0 0 0 0v0c-2 0-6 2-8 4v0l-32 26c-2 2-4 6-4 10s2 6 4 10v0c2 2 6 4 10 4 2 0 6-2 8-4v0l22-20 46 54c2 2 4 4 8 4s8-2 10-4c2-2 4-6 4-10 0-2-2-6-4-8z" />
<glyph unicode="&#x45;" glyph-name="crm" data-tags="crm" d="M898 746h84v-596h-84zM726 150v596h86v-596zM598 746c12 0 22-4 30-12s14-18 14-30v-512c0-12-6-22-14-30s-18-12-30-12h-512c-12 0-22 4-30 12s-12 18-12 30v512c0 12 4 22 12 30s18 12 30 12zM342 630c-28 0-50-10-68-28-20-18-28-42-28-68s8-50 28-68c18-18 40-28 68-28 26 0 48 10 68 28 18 18 28 42 28 68s-10 50-28 68c-20 18-42 28-68 28zM534 234v32c0 30-22 52-66 70s-86 26-126 26c-40 0-82-8-126-26s-66-40-66-70v-32z" />
<glyph unicode="&#x61;" glyph-name="provisioning" data-tags="provisioning" d="M724 544c4-188-154-356-338-362-214-4-382 150-386 356-4 194 158 364 350 368 210 2 368-152 374-362zM362 226c182 0 320 140 320 322 0 172-144 314-320 314-174 0-318-144-318-314 0-180 140-322 318-322zM710 346c100-78 194-154 290-234 14-12 24-30 24-50 0-18-6-32-16-44-24-30-66-38-94-14-98 76-192 152-290 232 32 34 64 68 86 110zM688 238l232-186c4-2 8-6 12-8 14-10 30-14 42 0 12 16 6 32-10 44-22 18-46 36-68 54l-174 140zM314 510c-32-22-52-48-52-90h226c2 42-20 68-50 88-2 16 8 26 16 36 60-28 86-82 76-168h-306c-18 72 8 132 70 170 10-10 18-22 20-36zM374 528c-56 2-104 52-104 106 0 58 48 104 106 104 56 0 104-46 104-104 0-2 0-2 0-2-2-56-48-102-106-104zM374 694c-32 0-60-28-60-60 0-36 26-62 62-62 32 0 60 26 60 60s-26 62-60 62c-2 0-2 0-2 0z" />
<glyph unicode="&#x62;" glyph-name="invoices" data-tags="invoices" d="M720 960h-550c-34 0-62-28-62-62v-900c0-34 28-62 62-62h684c34 0 62 28 62 62v766zM864-2c0-6-4-12-10-12h-684c-6 0-10 6-10 12v900c0 6 4 12 10 12h492v-160c0-26 18-44 42-44h160v-710zM712 756v136l136-136zM670 664l-22-102c-22 20-52 32-92 32-2 0-4 0-4 0-38 0-72-18-94-44-14-18-24-38-30-60v-2h204l-12-56h-200c0-6 0-14 0-22 0-10 0-18 2-28h188l-12-56h-170c6-24 16-46 30-64 22-26 54-42 92-42 2 0 2 0 4 0 48 0 84 14 114 42v-112c-32-16-68-24-108-24-2 0-4 0-6 0s-4 0-6 0c-68 0-128 28-172 74-30 34-52 76-62 124v2h-54l12 56h36c0 6 0 12 0 20 0 10 0 20 0 30h-48l12 56h44c10 48 32 90 62 124 46 50 108 74 184 74 2 0 4 2 6 2 36 0 72-10 102-24z" />
<glyph unicode="&#x63;" glyph-name="demo" data-tags="demo" d="M508 214c-128 0-258 0-386 0-80 0-122 42-122 122 0 126 0 254 0 380 0 78 44 122 124 122h774c80 0 126-46 126-126 0-124 0-248 0-372 0-82-44-126-126-126-130 0-260 0-390 0zM512 254c128 0 258 0 386 0 58 0 86 28 86 86 0 124 0 248 0 372 0 58-28 84-86 84-256 0-514 0-772 0-62 0-86-24-86-86-2-122-2-246 0-368 0-64 24-88 86-88 128 0 258 0 386 0zM404 192l8-28c4-2 6-2 10-4 54 0 106 0 158 0 20 0 42 0 36 32 116 0 230 2 344 0 38-2 62-28 62-64 2-34-24-64-62-68-4-2-8-2-14-2-2 0-4 0-6 0-286 0-572 0-860 0-52 0-82 28-80 72 2 30 18 50 48 58 18 6 38 4 58 4 98 0 198 0 298 0zM512 100c144 0 286 0 430 0 20 0 40 2 40 24 2 26-20 30-40 30-90 0-178 0-268 0-10 0-20 2-28-8-16-26-42-26-70-26-34 2-70 0-106 0-34 0-74-8-98 30-4 2-8 4-12 4 0 0 0 0-2 0-96 0-192 0-290-2-16 0-28-10-28-28 2-18 14-24 32-24zM856 692c2-6 4-12 4-18 0-8-2-14-4-20v2h-668c-2 4-4 12-4 18s2 12 4 18zM856 446c4-14 6-26-2-36h-666c-6 12-4 22-2 36zM858 568v-36h-670c-4 12-4 24-2 36z" />
<glyph unicode="&#x64;" glyph-name="customer-list" data-tags="customer-list" d="M290 464h400c8 38-2 78 6 118 12 4 22 4 36 0v-118c52-10 112 14 144-40 20-32 4-70 10-102-14-10-24-4-36-6-8 22-4 44-4 66 0 24-10 38-34 38-92 0-184 0-278 0v-100c-8-4-14-4-22-4-6 0-14 0-20 2h2v102h-182c-30 0-58 0-86 0-32 0-48-14-46-46 2-18 0-36 0-54-6-2-14-4-22-4-4 0-10 0-14 2-12 86-8 142 104 146v120h42v-122zM122 622c-8 76 18 128 76 156l16-28c-12-12-24-24-34-38-12-12-16-30-18-50h218c-2 40-24 66-54 86l18 30c56-22 84-80 76-156zM368-60c-2 10-4 22-4 36 0 52 30 98 72 120h2c12-6 12-20 22-30-34-20-52-48-54-86h216c2 40-24 64-50 84 2 14 10 26 18 34 62-36 80-90 72-158zM640 780l18-30c-24-24-54-46-52-88h216c0 38-20 64-50 84 2 14 10 22 18 34 62-36 80-90 74-158h-296c-16 62 12 124 72 158zM712-62c-14 70 12 126 70 158 12-6 14-18 20-30-30-20-50-46-52-86h218c-2 38-22 64-52 84 2 14 8 24 18 32 58-28 84-88 72-158zM112 66c-32-20-52-48-54-88h218c0 40-22 66-54 88l18 30c56-22 84-80 76-154-18-10-36-4-54-4-72-2-144 0-218-2-22 0-30 8-28 30 2 56 22 102 74 130 12-6 14-18 22-30zM956 182c0 0 0-2 0-2 0-54-44-98-98-98-52 0-96 44-98 98 0 0 0 0 0 2 0 52 44 96 98 96s98-42 98-96zM856 122c2 0 2 0 4 0 32 0 58 26 58 58 0 34-26 60-58 60s-56-24-58-56c0-2 0-4 0-4 0-32 24-58 54-58zM70 182c0 54 44 98 98 98 52 0 96-46 96-100 0 0 0-2 0-2 0-54-44-98-96-98-54 0-98 44-98 98 0 0 0 2 0 4zM224 182c0 32-26 56-56 58-32 0-58-26-58-58 0-34 26-60 58-60s56 26 56 58c0 2 0 2 0 2zM174 862c0 0 0 2 0 4 0 52 42 94 94 94 2 0 2 0 2 0 58 0 98-40 98-98 0 0 0 0 0-2 0-52-42-94-94-96-2 0-2 0-4 0-54 0-96 44-96 98zM268 806c2 0 2 0 4 0 30 0 54 24 56 54 0 0 0 2 0 4 0 32-26 58-56 58-32 0-58-26-58-56 0-34 22-58 54-60zM610 182c0-54-42-98-96-98s-98 44-98 98c0 54 42 98 96 98s98-44 98-96zM572 180c0 32-24 58-56 60 0 0-2 0-2 0-32 0-58-26-58-58 0 0 0-2 0-2 0-30 24-56 54-58h2c32 0 58 26 60 58zM714 960c0 0 2 0 2 0 54 0 96-42 96-96 0 0 0-2 0-2 0-54-44-98-96-98-2 0-2 0-4 0-52 2-96 44-96 98s44 98 98 98zM772 860c0 0 0 2 0 2 0 30-22 56-52 58-2 0-4 0-6 0-30 0-56-24-56-54-2-2-2-4-2-4 0-30 24-54 52-56 2 0 4 0 6 0 30 0 56 24 58 54z" />
<glyph unicode="&#x65;" glyph-name="did" data-tags="did" d="M82 452c0 136 0 272 0 408 0 66 34 100 100 100 218 0 436 0 654 0 70 0 106-36 106-106 0-270 0-540 0-810 0-72-38-108-108-108-214 0-430 0-644 0-72 0-108 34-108 106 0 138 0 274 0 410zM122 448c0-136 0-270 0-406 0-48 18-66 66-66 216 0 430 0 646 0 48 0 68 20 68 68 0 270 0 540 0 810 0 48-18 66-66 66-214 0-430 0-646 0-54 0-68-14-68-68 0-136 0-270 0-404zM366 696h-138v138h138zM328 738c0 20 4 40-4 60-20-2-38 2-58-4 0-20-4-40 4-58 6-2 16-2 24-2 12 0 24 2 34 4h-2zM366 200v-138h-138v138zM326 160h-58v-60c20 0 38-4 58 2 2 10 2 20 2 32 0 8 0 18-2 26zM228 520h138v-138h-138zM326 420v60c-8 0-16 2-26 2-12 0-22-2-34-4h2v-58zM474 750c-2 12-4 24 2 36h318c8-10 4-22 6-36zM794 150c6-12 6-22 2-36h-322c-4 12-2 22 0 36zM796 466c2-6 4-10 4-16 0-8-2-14-6-20h-318c-6 12-4 22-2 36z" />
<glyph unicode="&#x66;" glyph-name="doc" data-tags="doc" d="M146 30l-30 16c-4 14 6 24 12 36 46 94 94 190 140 286 20 40 48 58 94 58 200-2 398-2 598 0 52 0 80-38 54-88-56-106-112-212-168-316-18-36-46-50-86-50-222 0-446 0-670 0-64 0-90 26-90 92 0 164 4 328 0 492-2 92 46 118 124 106 6-6 2-14 2-20s0-10 0-14c-2-2-2-2-4-4-82-6-82-6-82-90 0-154 0-310 0-464 0-50 10-60 60-60 216 0 432 0 650 0 32 0 52 12 68 42 50 98 102 196 154 294 6 12 14 22 10 36-10 6-22 2-30 2-198 0-394 0-592 2-28 0-44-10-56-34-52-108-104-214-158-322zM736 454h-38c0 62-6 124 0 184 10 84-12 148-78 204-32 28-60 44-104 42-94-4-190 0-286 0-44 0-48-4-48-46 0-190 0-380 0-570 0-14 0-26 0-36-6-4-12-4-20-4-4 0-8 0-12 0-10 14-6 28-6 44 0 190 0 382 0 572 0 62 20 80 80 80 112 0 224-2 336 0 0 0 2 0 4 0 22 0 44-10 58-28 32-34 66-70 98-104 8-8 16-18 16-32 0-100 0-202 0-306zM442 678c-54 0-108 0-160 0-16 0-32 0-34 20 0 22 18 20 32 20h322c14 0 32 4 32-18s-18-22-32-22zM440 596h164c14 0 28 0 28-20 0-18-12-20-28-20h-326c-14 0-28 2-30 20 0 18 14 20 30 20 54 0 108 0 162 0z" />
<glyph unicode="&#x67;" glyph-name="feedback" data-tags="feedback" d="M838 536c-8 158-160 300-322 300-164 0-320-144-326-300 16-6 32-2 48-2 34-2 52-18 52-50 2-100 2-198 0-296 0-34-18-50-52-50-24 0-50 0-76 0-2-46 18-78 52-102 38-26 82-40 132-40 2 0 2 0 4 0 70 0 136-28 206-18 10 2 22-2 32 6 6 42 6 44-34 44-34 0-66 0-98 0-8 12-4 24-4 36 48 0 92 2 138 0 32-2 44-28 42-72-2-32-20-52-50-52-42-2-86-8-126 0-62 16-126 10-188 28-82 26-142 72-150 166-62 10-66 14-66 80 0 86-6 172 2 258 8 110 32 218 104 308 108 134 250 202 422 174 176-28 294-136 358-302 24-62 34-128 34-194 2-86 2-172 2-258 0-48-14-62-64-62-42 0-84 0-126 0-32 0-48 16-50 48 0 100 0 200 0 300 0 30 18 46 50 48 18 0 34 0 52 2 0 0 2 0 2 0zM248 494h-104c8 156 76 274 212 344 128 64 256 52 372-34 102-76 150-182 156-312h-106v-312h154c0 90 2 178 0 264 0 2 0 6 0 8 0 54-6 108-22 158l2-4c-50 166-160 278-332 308-178 30-314-46-412-192-54-80-68-170-74-262-6-80-2-164-2-246 0-12-4-24 6-34h150z" />
<glyph unicode="&#x68;" glyph-name="account" data-tags="account" d="M322 282h40c0-48 0-96 0-144 0-70 30-100 96-100 144 0 288 0 430 0 66 0 96 32 96 96 0 212 0 422 0 632 0 64-28 92-92 92-148 0-296 0-446 0-54 0-84-32-84-86 0-50 0-102 0-152-12-6-24-4-38-4 0 66-10 132 4 196 12 54 58 86 114 86 154 0 308 0 462 0 70 0 120-52 120-122 0-216 0-434 0-650 0-74-48-126-120-126-154-2-308-2-460 0-74 0-122 52-122 124 0 52 0 104 0 158zM420 366c-12-4-18-18-32-16-48 10-72-18-100-54-66-88-184-82-246 10-54 80-56 164-10 248 64 116 208 118 274 4 14-24 30-30 56-30 76 2 154 0 232 0 36 0 92-40 104-74 0-6 2-10 2-16 0-4-2-10-2-14-18-58-92-92-146-64-4 2-8 2-14 2-4 0-8 0-10-2-14-8-32-12-50-12-20 0-40 6-58 18zM660 436c-22 38-54 56-100 54-74-6-148 0-222-2-30-2-46 4-60 36-38 88-136 104-194 36-56-64-56-174-2-240 48-58 120-62 172-6 14 14 24 30 30 48v2c6 20 18 26 38 24 38-4 74-2 96 38 60-58 74-46 118-2 70-50 72-50 124 14zM70 436c0 46 26 80 60 82 34 0 62-36 62-80 0-42-28-78-60-80-32 0-62 34-62 78zM132 398c28 34 26 56-2 78-28-28-28-48 2-78z" />
<glyph unicode="&#x69;" glyph-name="meetings" data-tags="meetings" d="M128 562c-12 0-22 4-32 12 36 126 186 254 356 274 244 28 420-124 478-272-8-12-20-12-32-18-80 160-206 252-384 254-180 0-306-92-386-250zM402 260c10-8 14-20 20-36-44-28-74-76-74-132h330c0 54-30 102-74 130 2 18 12 26 18 38 76-28 118-144 98-216h-414c-20 86 24 184 96 216zM514 524c74 0 134-60 134-134 0-76-62-138-138-138-74 4-132 64-134 138 0 74 60 134 136 134 0 0 2 0 2 0zM512 300c50 0 92 44 92 92-2 48-42 90-92 90s-90-42-90-92c0-48 42-90 90-90zM806 360l16-32c-28-20-50-44-50-84h210c2 38-20 62-48 82 0 14 10 22 16 36 60-36 80-88 72-156h-286c-18 58 8 118 70 154zM220 358c58-30 82-84 68-154h-282c-18 60 6 118 66 154 8-8 16-18 18-30-26-22-50-44-48-84h210c0 38-20 62-48 82 0 14 8 24 16 32zM878 346c-52 0-96 42-96 94 0 54 44 96 96 96s96-42 96-94c0-54-44-96-96-96zM934 442c0 30-28 56-60 54-30 0-54-26-54-56 2-32 28-56 58-56 2 0 2 0 2 0 30 2 54 26 54 58zM146 346c-52 0-98 44-96 96 0 54 42 98 96 98s98-44 98-98c0-54-44-96-98-96zM146 384c30 0 56 24 58 54 0 30-26 58-58 58-30 0-56-24-56-54 0-32 24-58 56-58z" />
<glyph unicode="&#x6a;" glyph-name="services" data-tags="services" d="M648 52c-18-68-56-108-122-116-78-6-126 36-152 112-22-72-66-112-138-112-58 0-108 38-126 90v2c-18 54-2 116 44 148 22 16 28 32 26 58 0 10-2 24-2 36 0 14 2 26 2 40v-2c4 56 42 94 98 94 154 0 310 0 464 0 60 0 96-38 100-98 0-10 0-20 0-30-2-42-2-80 40-112 46-36 48-92 26-144-20-52-64-80-122-82 0 0-2 0-2 0-56 0-104 34-124 82-4 10-8 20-12 34zM764 322c0-40 0-80 0-118 2-22-4-36-28-50-54-26-66-100-26-144 28-32 62-44 102-32 38 12 64 38 68 80 6 44-12 82-52 100-20 10-24 20-24 42 2 32 2 62 0 94 0 48-20 70-66 70-152 0-302 0-452 0-46 0-68-24-68-70 0-42 0-84 0-126-56-24-86-64-78-110 8-48 48-82 94-84 2 0 4 0 6 0 46 0 86 32 94 76v2c12 48-14 90-74 118v152h232c0-42 0-82 2-122 0-22-6-32-26-42-34-16-52-44-54-84 0-38 16-66 48-86 14-8 32-14 50-14 36 0 68 20 86 50v2c26 48 8 106-42 134-10 4-24 2-24 20 2 48 0 94 0 142zM648 86c12 50 34 82 70 104 10 8 14 84 4 92-2 2-4 4-8 4-48 0-94 0-144 0 0-22 2-38 0-54-2-24 4-42 26-56 28-18 44-48 52-90zM454 284h-158c0-20 0-38 0-56 2-12-6-28 6-34 36-22 58-54 74-100 10 34 20 64 46 78 30 18 34 42 32 74-2 10 0 22 0 38zM608 680c116-38 168-116 156-232h-502c-22 74 14 194 156 232-46 40-70 88-62 148 6 38 24 70 52 94 60 52 154 50 212-4 68-62 64-140-12-238zM728 488c-4 74-46 132-114 148-32 6-66 10-102 10s-72-4-106-10h4c-72-16-118-82-112-148 30-4 398-4 430 0zM394 804c0-62 52-114 116-114 0 0 0 0 2 0h-2c66 0 122 54 120 118 0 62-56 114-120 114s-116-52-116-116c0 0 0 0 0-2zM512 130c32-2 58-28 58-60-2-30-28-56-58-56-2 0-2 0-2 0-30 0-56 26-56 56 0 2 0 2 0 4 0 30 26 56 58 56 0 0 0 0 2 0zM518 52c4 0 12 8 12 18 2 0 2 0 2 2 0 10-10 18-20 18-12 2-18-6-18-18-2-12 6-18 24-20zM842 72c0-34-24-58-56-58-2 0-2 0-4 0-30 0-54 24-54 54 0 2 0 2 0 2 0 2 0 2 0 2 0 32 24 58 56 58s56-26 58-58zM804 70c-2 12-6 20-18 22-14 0-20-8-20-20 0-2 0-2 0-2 0-10 8-18 18-18 0 0 0 2 0 2 12 0 18 6 20 16zM238 14c-32 2-58 26-58 58 2 32 28 58 58 58 32 0 58-26 58-58s-26-58-58-58zM236 92c-8-6-18-10-16-22 0-10 8-18 16-18 2 0 2 0 4 2 12 0 18 8 18 20-2 10-10 16-22 18z" />
<glyph unicode="&#x6b;" glyph-name="preaccount" data-tags="preaccount" d="M348 590h518c68 0 96-28 96-96 0-154 0-310 0-464 0-60-30-94-92-94-238 0-478 0-716 0-58 0-92 32-92 90 0 160 0 318 0 476 0 56 32 86 90 88 8 0 18-2 28 6 2 52 4 108 26 160 52 116 142 186 268 200 136 16 244-38 320-152 24-38 16-98-16-122-28-22-74-14-108 18-14 14-24 32-36 44-30 32-74 52-120 52-30 0-58-6-82-20h2c-68-36-102-106-86-186zM218 550c-20 0-36 0-54 0-52 0-62-10-62-60 0-152 0-302 0-452 0-48 14-62 64-62 232 0 464 0 696 0 48 0 60 12 60 60 0 150 0 300 0 452 0 56-6 62-66 62-170 0-340 0-512 0-12 0-24-2-38 6-2 40-6 82 4 124 24 84 80 138 166 154 84 14 154-16 206-84 14-18 28-34 50-38 16-4 28 0 32 16 4 20 6 40-8 58-60 96-180 152-290 130-120-22-200-94-234-212-16-48-8-98-14-154zM514 406c78 0 142-62 142-140 0 0 0-2 0-2 0-80-64-142-142-142-2 0-2 0-2 0-78 0-144 66-142 144 0 78 64 140 144 140zM514 366c0 0-2 0-2 0-56 0-102-46-102-102 0-54 48-102 102-102 56-2 104 46 102 104 0 0 0 0 0 2 0 54-44 98-98 98 0 0-2 0-2 0z" />
<glyph unicode="&#x6c;" glyph-name="channel" data-tags="channel" d="M64 960h774v-920h-774zM798 80v838h-694v-838zM920 818l-54 4c-2 6-4 12-4 18s2 12 4 18h94v-922h-780v76c12 6 24 4 38 2l2-36h700zM306 494c-26-18-52-34-86-20-40 14-60 46-56 90 8 36 38 64 74 68 40 2 76-22 86-64 12-46 12-46 56-72 48 40 72 42 126 14 20 18 42 36 64 50 16 12 8 24 6 36 0 6-2 10-2 16 0 40 30 74 68 80 42 8 84-20 94-64 10-42-18-84-62-96-6 0-14-2-20-2-4 0-8 0-12 0h2c-14 2-26 18-38 8-26-18-50-40-74-60-8-6 0-16 0-22 0-2 0-4 0-6 0-40-26-74-64-82-38-10-86 12-92 52-6 46-40 54-70 74zM450 490c-24-4-40-16-40-42s16-40 40-42c2 0 2 0 4 0 20 0 38 18 38 38 0 2 0 2 0 4 0 24-14 38-42 42zM204 550c2-26 18-40 42-40 26 0 42 18 40 42 0 24-16 40-42 40-26-2-38-18-40-42zM616 610c2-24 16-40 42-38 24 0 40 16 40 40-2 26-16 42-42 40-26 0-38-16-40-42zM228 780c-2 12-4 24 2 36h446l2-36zM676 322v-36h-446c-6 12-4 22-2 36zM676 198v-36h-446c-6 12-4 24-2 36z" />
<glyph unicode="&#x6d;" glyph-name="sales-file" data-tags="sales-file" d="M818 960c4-44 2-562-2-590-26 12-38 30-38 62 2 150 0 300 0 450 0 14 0 26 0 40h-698v-844h698v208c32-12 44-28 42-60-2-62 0-122 0-186h-780v920zM660 460l296-228c4-2 8-4 12-8 8-10 24-18 12-34-12-14-24-8-36 2-44 34-90 68-134 102l-178 138c-122-90-256-56-330 34-72 86-64 222 14 304 82 84 214 92 312 18 74-56 128-194 32-328zM482 418c104 0 190 86 192 190 0 102-86 190-190 192s-194-88-192-192c2-104 88-190 190-190zM902-24v214c28-10 44-22 42-54-2-66 0-132 0-200h-780c-8 24-2 48-4 74 14 6 26 4 40 2l2-36zM838 858h102v-584c-24 14-38 28-38 58 2 150 0 298 0 448 0 12 0 24 0 36-22 10-42 0-62 8-8 10-4 20-2 34zM162 266v36h512l2-36zM164 178h508c6-12 4-22 2-36h-510c-2 6-4 12-4 18s2 12 4 18zM550 512c-6 0-12-2-18-2s-14 2-20 4v198c12 6 24 4 38 0zM410 650c12 6 24 4 36 2v-136c-10-8-22-6-36-4z" />
<glyph unicode="&#x6e;" glyph-name="support-2" data-tags="support-2" d="M794 298c-40-56-104-92-176-92h-100c-36 0-66 24-76 54-16 6-30 12-44 18h2c-30 14-54 34-76 58-148-36-256-168-256-324 0-2 0-2 0-4v-20c0-28 24-52 52-52h786c28 0 50 24 50 52v20c0 2 0 2 0 2 0 122-64 228-160 288zM270 442c22 0 40 14 50 32l2-2v-2c20-62 66-110 124-136h2c14 22 40 38 68 38h102c10 0 20 4 28 8 14 10 24 24 32 38 10 16 18 34 24 54l2 2c4-8 8-14 16-20v-26c0-56-46-102-102-104h-100c-20 0-36-16-36-34 0-20 16-36 36-36h100c94 0 170 78 170 172 0 2 0 2 0 2v26c14 12 24 28 24 48v148c0 20-10 38-24 48-8 146-128 262-276 262s-268-116-276-260v-2c-14-10-24-28-24-48v-148c0-32 26-58 58-60zM512 888c108 0 198-84 206-190v-2c-6-4-12-12-16-20-22 86-98 148-190 148s-168-62-190-146v-2c-4 8-10 16-16 20 10 108 98 192 206 192z" />
<glyph unicode="&#x6f;" glyph-name="app" data-tags="app" d="M146 960c82 0 146-66 146-146 0-82-64-146-146-146-80 0-146 64-146 146 0 80 66 146 146 146zM512 960c80 0 146-66 146-146 0-82-66-146-146-146s-146 64-146 146c0 80 66 146 146 146zM878 960c80 0 146-66 146-146 0-82-66-146-146-146-82 0-146 64-146 146 0 80 64 146 146 146zM146 594c82 0 146-66 146-146s-64-146-146-146c-80 0-146 66-146 146s66 146 146 146zM512 594c80 0 146-66 146-146s-66-146-146-146c-80 0-146 66-146 146s66 146 146 146zM878 594c80 0 146-66 146-146s-66-146-146-146c-82 0-146 66-146 146s64 146 146 146zM146 228c82 0 146-64 146-146 0-80-64-146-146-146-80 0-146 66-146 146 0 82 66 146 146 146zM512 228c80 0 146-64 146-146 0-80-66-146-146-146s-146 66-146 146c0 82 66 146 146 146zM878 228c80 0 146-64 146-146 0-80-66-146-146-146-82 0-146 66-146 146 0 82 64 146 146 146z" />
<glyph unicode="&#x70;" glyph-name="notifications" data-tags="notifications" d="M0 108v84h1024v-84zM896 192h-44v298c0 218-120 342-340 342s-342-124-342-342v-298h-84v342c0 2 0 4 0 6 0 196 148 358 338 378h2c20 26 50 42 86 42 34 0 66-16 84-42h2c192-20 340-182 340-378 0-2 0-4 0-6v-342zM512 22c60 0 74 30 86 86h84c-12-82-84-172-170-172s-160 90-170 172h84c12-56 26-86 86-86z" />
<glyph unicode="&#x71;" glyph-name="settings" data-tags="settings" d="M972 556l-72 12c-8 26-18 50-30 72v-2l44 58c6 10 10 24 10 38 0 16-6 32-18 44l-64 64c-10 12-26 18-44 18-14 0-26-4-38-12h2l-60-42c-20 12-44 22-70 30h-2l-12 72c-6 30-32 52-62 52h-90c0 0-2 0-2 0-30 0-56-22-62-52l-12-74c-26-8-50-18-72-30l2 2-58 42c-10 8-22 12-36 12 0 0 0 0-2 0-16 0-32-8-44-20l-64-62c-10-12-18-28-18-46 0-14 4-26 12-36l42-60c-10-20-20-44-28-68v-2l-72-12c-30-6-52-32-52-62v-90c0 0 0-2 0-2 0-30 22-56 52-62l74-12c8-26 18-50 30-72l-2 2-42-58c-6-10-12-22-12-36 0-18 8-34 20-46l64-64c10-10 26-18 44-18 14 0 26 4 36 12l60 42c20-10 42-18 66-26l2-2 12-72c6-30 32-52 62-52h92c30 0 56 22 62 52l12 72c26 10 50 18 72 30h-2l58-42c10-8 24-12 38-12 18 0 32 6 44 18l64 64c12 12 18 28 18 44 0 14-4 28-12 38l-42 58c12 20 22 44 28 68l2 2 72 12c30 6 52 32 52 62v92c0 30-22 56-52 62zM966 402c0-2-2-4-4-4l-90-16c-12-2-20-10-22-20-10-34-22-64-38-92v2c-2-4-4-10-4-16s2-12 6-16l52-74c0-2 2-2 2-4s-2-2-2-4l-64-64c-2 0-2-2-4-2s-2 2-4 2l-74 52c-4 4-10 6-16 6s-12-2-16-4c-26-16-54-28-86-36l-2-2c-12-2-20-10-22-22l-16-90c0-2-2-4-4-4h-92c-2 0-4 2-4 4l-16 90c-2 10-10 20-20 22-34 10-64 22-90 38l2-2c-4 4-10 4-14 4 0 0 0 0-2 0-6 0-12-2-16-4l-74-54c-2 0-2 0-4-2-2 0-2 2-4 2l-64 64c0 2-2 2-2 4s2 2 2 4l52 74c4 4 6 10 6 16s-2 10-4 16c-16 24-28 54-38 86v2c-2 12-12 20-24 22l-90 16c-2 0-4 2-4 6v88c0 4 2 6 4 6l90 16c10 2 20 10 22 20 10 34 22 64 38 92v-2c2 4 4 10 4 14 0 8-2 14-6 18l-54 74c0 2 0 2 0 4s0 2 2 4l64 64c0 0 2 2 4 2 0 0 2 0 2-2l74-52c4-4 10-6 18-6 4 0 10 2 14 4 26 16 56 30 86 38h4c10 4 18 12 20 24l16 90c0 2 2 4 6 4h90c2 0 4-2 6-4l14-90c2-10 10-20 22-22 34-10 64-22 92-40v2c4-2 8-4 14-4s12 2 16 4l74 54c2 0 2 0 4 2 2 0 2-2 4-2l64-64c0-2 2-2 2-4s-2-2-2-4l-52-74c-4-4-6-10-6-16s2-12 4-16c16-26 28-54 36-86l2-2c2-12 12-20 22-22l90-16c2 0 4-2 4-4 0 0 0 0 0-2zM512 670c-122 0-220-100-220-222s98-220 220-220c122 0 220 98 222 220 0 122-100 222-222 222zM512 286c-90 0-162 72-162 162s72 164 162 164c90 0 164-74 164-164s-74-164-164-164z" />
<glyph unicode="&#x72;" glyph-name="dashboard" data-tags="dashboard" d="M124 66c-36 90-72 122-80 248-32 484 610 714 874 264 38-66 60-144 60-230 0-14-2-28-2-44v2c-10-122-46-154-80-240zM36 554c-2-44-26-90-32-140-16-118 20-280 86-366l22-24 794 2c44 12 184 288 64 542-74 160-190 246-396 292-218 10-388-66-496-240l-30-52c-2-6-6-10-12-14zM450 732c362 42 458-384 386-376-42 4 2 80-70 190h-2c-46 74-124 128-216 142h2c-16 4-32 4-50 4-158 0-290-116-312-270-4-26 0-58-22-66-68-28-6 340 284 376zM598 484v-6c-14-74-32-146-56-206v-2c-16-38-52-64-96-64-56 0-102 44-102 102 0 10 2 20 4 28 20 72 184 132 250 148zM614 536c-96-28-178-66-254-114l4 2c-208-154 132-420 226-146 14 38 26 84 36 132l2 8c8 42 44 134-14 118z" />
<glyph unicode="&#x73;" glyph-name="support" data-tags="support" d="M782 704c0-32-22-48-40-62-6-6-16-14-16-18 0-14-12-26-26-26s-26 12-26 26c0 26 20 44 38 58 10 10 20 16 20 24 0 16-12 26-26 26s-24-16-24-28c0-14-10-26-24-26-16 0-26 12-26 26 0 40 34 74 76 74 40 0 74-34 74-74zM702 576c-14 0-26-12-26-26s12-26 26-26c14 0 26 12 26 26s-12 26-26 26zM190 402c-14 0-26-10-26-26 0-14 12-24 26-24h4c14 0 26 10 26 24 0 16-12 26-30 26zM278 402c-14 0-24-10-24-26 0-14 10-24 24-24h4c14 0 26 10 26 24 0 16-12 26-30 26zM1024 804v-284c0-66-46-114-114-114h-342c-4 0 6 0 0 0-4 0-24 0-28 0-2 0-10-20-14-24l-42-90c-8-6-48-4-58 0-8 2-28 20-28 28v256h-284c-40 0-58-18-58-56v-286c0-40 18-56 58-56h370c6 0 48 0 56 0 6-6 28-58 28-58v200c0 14 16 28 30 28s28-14 28-28v-312c0 0 8-30-28-30-26 0-24 26-30 30l-84 112h-370c-68 0-114 50-114 114v286c0 64 46 112 114 112h284v172c0 64 46 114 114 114h398c68 0 114-50 114-114zM968 804c0 40-18 56-58 56h-398c-40 0-56-16-56-56v-428c0 0 38 50 42 50 22 20 40 36 70 36 4 0-4 0 0 0h342c40 0 58 18 58 58z" />
<glyph unicode="&#x74;" glyph-name="myaccount" data-tags="myaccount" d="M184 220c0 0 84 4 134-32 32-24 32-70 32-134zM184 282c-6 114-18 212-18 322 0 104-20 234 48 284 64 46 226 26 314 22 354 0 318 26 318-330 0-108 0-222 0-330 0-112-6-232-100-232-72 0-230 0-330 0 0 50 24 178-32 232-54 50-116 32-200 32zM212 946c-28-32-46-32-74-78-20-40-20-70-20-116 0-90 0-178 0-270 0-64 0-130 0-192 0-94-16-90 34-136 24-24 198-198 198-198s324 0 396 0c120 10 162 56 162 228 0 122 0 248 0 370 0 98 16 264-32 336-64 90-182 70-308 70-62 0-126 0-188 0-30 0-66 0-96 0-32-6-46-14-72-14zM318 348v66h428c0-38 0-66 0-66zM318 482v66h428v-66zM318 646v66h428v-66z" />
<glyph unicode="&#x75;" glyph-name="sub" data-tags="sub" d="M1024 450c0-282-226-514-506-514-286 0-518 230-518 512 0 284 228 512 510 512 2 0 2 0 2 0 286 0 512-224 512-510zM982 444c4 262-204 472-466 474-252 2-468-206-472-450-4-266 198-486 452-488 272-4 482 198 486 464zM438 210c-4 42-26 68-58 90l20 32c60-28 88-88 78-166h-308c-24 58 10 136 72 166 10-8 14-20 20-32-32-20-52-48-56-90zM766 298c0 16 12 24 16 36 62-34 86-84 78-168h-308c-4 12-6 26-6 42 0 54 32 102 78 126h2l18-34c-14-14-32-22-40-40-8-16-18-32-12-52h224c4 42-22 66-50 90zM400 570h228c-2 38-22 70-54 88 0 16 10 24 16 36 62-28 90-86 78-166h-308c-20 62 8 126 74 168 2-6 6-10 10-14 2-6 4-12 8-18-24-26-56-48-52-94zM808 422c0-58-46-104-104-104s-104 46-104 104c0 58 46 104 104 104 56 0 102-46 104-104zM766 422c-2 34-28 60-60 62-34 0-62-28-62-62s26-60 58-62c34 0 62 28 64 62zM424 420c-2-54-46-98-102-98s-104 46-104 102c0 56 48 102 104 102 0 0 0 0 2 0 56 0 100-48 100-104 0 0 0 0 0-2zM320 360c2 0 2 0 4 0 34 0 62 28 62 62s-28 62-62 62c-32 0-60-26-62-58 0-2 0-4 0-6 0-32 26-60 58-60zM616 784c0-60-44-104-102-104-2 0-2 0-4 0-56 0-100 44-100 100 0 2 0 2 0 4 0 56 44 102 100 102 60 0 106-42 106-102zM512 842c0 0-2 0-2 0-32 0-58-26-58-56 0-2 0-2 0-2s0-2 0-2c0-32 26-60 60-60s62 28 62 62c-2 32-28 58-62 58z" />
<glyph unicode="&#x76;" glyph-name="servicemanage" data-tags="servicemanage" d="M814 960v-330c-38-6-784-4-814 0v330zM774 918h-734v-248h734zM2 262h542c6-12 4-24 0-38h-502v-246h720v152c14 10 28 10 42 12v-206h-802zM0 286v312c14 8 26 6 36 6 190 0 378 0 566 0 16 0 32 6 42-16 8-24-8-30-22-42-74-56-102-142-76-232 2-8 8-16 4-28zM570 560h-528v-234h454c-2 128 8 142 74 234zM936 240c6-38-14-52-40-62-26-12-46-14-66 10-14 18-24 18-36-2-16-24-38-26-64-16-26 12-48 24-46 58 2 20-2 32-26 24-28-8-44 10-56 32s-24 48 2 70c20 16 26 28-2 46-26 16-16 44-8 68 10 26 26 42 52 38 28-6 30 6 26 26-6 32 14 48 40 58 24 12 48 16 68-10 12-16 20-20 34 0 16 26 38 30 66 18 28-10 48-22 44-56-2-24 6-30 28-26 34 8 48-14 60-40 12-24 12-48-10-64s-20-24 0-38c28-18 24-42 14-68-8-26-22-46-52-42-24 2-36-2-28-24zM746 556c0 0-2 0-2 0-12 0-22-4-30-14-2-14 14-24 12-38l-48-52-38 12c-12-20-20-36 10-44 8-2 14-6 14-14 8-34-2-64-32-84 2-12 6-24 16-30 16 0 30 24 44 4 18-22 62-34 34-76 10-8 20-14 34-12 8 58 56 22 82 38 14-10 12-28 26-34 10 0 20 6 28 14l-14 40c32 10 38 70 84 38 14 10 14 22 16 34l-38 18c8 32-22 76 38 88-10 12-8 24-20 32l-38-14c-14 22-34 34-50 48 0 16 14 26 6 44l-28 10-18-40c-24 8-48-2-70-2zM272 794c0-42-36-80-80-80-40-2-78 34-80 76 0 0 0 2 0 4 0 42 34 76 76 78 2 0 4 0 4 0 44 0 78-34 80-78zM194 830c-24 0-38-12-40-36-2-26 14-40 38-40 0 0 2 0 2 0 20 0 36 16 36 36 0 0 0 2 0 2 0 22-14 36-36 38zM408 872c0 0 0 0 2 0 44 0 78-36 78-80 0-42-36-78-80-78-42 0-78 34-80 78 0 44 36 80 80 80zM406 830c-22-2-36-14-36-38 0 0 0-2 0-2 0-20 16-36 36-36 0 0 2 0 2 0 24 0 40 16 38 40 0 22-14 36-40 36zM632 872c2 0 2 0 2 0 44 0 78-36 80-78 0 0 0-2 0-2 0-44-36-80-80-80s-80 36-80 80c0 0 0 0 0 2 0 42 34 78 78 78zM630 830c-20 0-34-16-34-34 0 0 0-2 0-2 0-24 16-40 40-38 22 0 36 14 36 38-2 24-16 36-42 36zM190 368c0 0-2 0-2 0-42 0-76 34-76 76s34 76 78 76c40 0 74-34 76-74 0-2 0-2 0-2 0-42-34-76-74-76-2 0-2 0-2 0zM192 408c20 2 34 14 34 36s-16 34-36 34c-22 0-38-12-36-36 0-24 16-32 38-32zM404 368c0 0 0 0-2 0-42 0-76 34-76 76 2 42 36 76 78 76 2 0 2 0 2 0 42-2 76-36 76-76 0-42-34-76-76-76 0 0-2 0-2 0zM410 410c16 2 32 10 30 34 0 22-16 34-36 34-22 0-38-14-36-36 0-22 16-34 40-32zM692 384c0 2 0 2 0 2 0 64 50 114 114 114s114-52 114-116c0-62-50-114-114-114 0 0-2 0-2 0-62 0-112 50-112 112 0 2 0 2 0 2zM804 312c2 0 2 0 2 0 40 0 72 32 74 72 0 40-36 76-76 74-40 0-72-32-72-72 0 0 0-2 0-2s0-2 0-2c0-38 32-70 70-70 2 0 2 0 2 0z" />
<glyph unicode="&#x77;" glyph-name="sales-graph" data-tags="sales-graph" d="M50-26h954c12-14 10-24 6-38h-1000v1024h40zM176 298l-36-48-34 24 66 90 106-124 192 278 124-266 122 222 106-146 132 222 34-20-162-278-104 146-130-238-128 276-184-264z" />
<glyph unicode="&#x78;" glyph-name="recordings" data-tags="recordings" d="M274-64h94v90h-94zM512 426c2 0 4 0 6 0 76 0 136 60 136 132v268c0 74-62 134-136 134-2 0-4 0-6 0v0c-2 0-4 0-6 0-76 0-136-60-138-134v-266c2-74 62-134 136-134 4 0 6 0 8 0v0zM464-64h96v90h-96zM654-64h96v90h-96zM844 560h-80c-6-128-112-228-240-228-4 0-8 0-12 0v0c-4 0-8 0-14 0-128 0-232 100-238 226v2h-80c0-152 128-276 284-298v-148h96v148c156 22 284 146 284 298z" />
<glyph unicode="&#x79;" glyph-name="advance-edit" data-tags="advance-edit" d="M996 932c18-18 28-42 28-68s-10-52-28-68v0l-46-46-136 136 46 46c18 18 42 28 68 28s50-10 68-28zM316 386l-42-176 180 44 452 452-136 138zM768 476v-414h-640v642h414l128 128h-670v-896h896v670z" />
<glyph unicode="&#x7a;" glyph-name="cdr" data-tags="cdr" d="M64 32v832c0 18 14 32 32 32h480v-128c0-36 28-64 64-64h128v-96h64v128c0 0 0 0 0 0 0 10-4 16-10 22l-192 192c-6 6-14 10-22 10h-512c-52 0-96-44-96-96v-832c0-52 44-96 96-96h224v64h-224c-18 0-32 14-32 32zM1024 320v64c0 36-28 64-64 64h-158c-18 0-32-14-32-32v-288h64v128h20l118-118 44 44-70 74h18c34 2 60 30 60 64 0 0 0 0 0 0v0zM832 320v64h128v-64zM674 448h-130c-18 0-32-14-32-32v-256c0 0 0 0 0 0 0-18 14-32 32-32 0 0 0 0 0 0v0h128c36 0 64 28 64 64v192c0 36-28 64-64 64zM674 192h-98v192h96zM352 384c36 0 64-28 64-64h64c0 2 0 6 0 10 0 70-58 128-128 128-72 0-128-58-128-128 0-4 0-8 0-10v0-64c6-66 60-118 128-118s122 52 128 118v0h-64c0-36-28-64-64-64s-64 28-64 64v64c0 36 28 64 64 64z" />
<glyph unicode="&#xe900;" glyph-name="network-4" data-tags="full_coverage" horiz-adv-x="796" d="M0 410.074h109.985v-474.074h-109.985v474.074zM227.556 592.119h109.985v-656.119h-109.985v656.119zM455.111 777.956h109.985v-841.956h-109.985v841.956zM686.459 960h109.985v-1024h-109.985v1024z" />
<glyph unicode="&#xe901;" glyph-name="hand_off_big" data-tags="hand_off_big" horiz-adv-x="748" d="M187.656 631.023v208.507c0 27.801 23.167 50.968 50.968 50.968s50.968-23.167 50.968-50.968v-259.475c0-9.267 6.95-16.217 16.217-16.217s16.217 6.95 16.217 16.217v328.977c2.317 27.801 25.484 50.968 55.602 50.968 27.801 0 50.968-23.167 50.968-50.968v-328.977c0-9.267 6.95-16.217 16.217-16.217s16.217 6.95 16.217 16.217v294.226c0 27.801 23.167 50.968 50.968 50.968s50.968-23.167 50.968-50.968v-328.977c0-9.267 6.95-16.217 16.217-16.217s16.217 6.95 16.217 16.217v224.724c0 27.801 23.167 50.968 50.968 50.968s50.968-23.167 50.968-50.968c0 0 0-493.466 0-549.068 0-20.851-2.317-62.552-20.851-104.253l-488.833 514.317zM701.973-64l-118.154 115.837c-34.751-18.534-81.086-30.118-143.638-30.118-145.955 0-222.407 57.919-271.059 129.738-48.652 74.136-159.855 243.258-159.855 243.258-20.851 32.434-13.9 71.819 16.217 90.353s69.502 6.95 90.353-25.484l69.502-94.986v76.452l-145.955 148.271 46.335 46.335 662.588-653.321-46.335-46.335z" />
<glyph unicode="&#xe902;" glyph-name="hand_on_big" data-tags="hand_on_big" horiz-adv-x="768" d="M481.882-64c-158.118 0-243.451 62.745-296.157 143.059s-175.686 266.039-175.686 266.039c-22.588 35.137-15.059 80.314 17.569 100.392s75.294 7.529 97.882-27.608l75.294-105.412v514.51c5.020 32.627 30.118 57.725 60.235 57.725s55.216-25.098 55.216-57.725v-283.608c0-10.039 7.529-20.078 17.569-20.078s17.569 7.529 17.569 20.078v358.902c0 30.118 25.098 57.725 55.216 57.725s55.216-25.098 55.216-57.725v-358.902c0-10.039 7.529-20.078 17.569-20.078s17.569 7.529 17.569 20.078v321.255c0 30.118 25.098 57.725 55.216 57.725s55.216-25.098 55.216-57.725v-356.392c0-10.039 7.529-20.078 17.569-20.078s17.569 7.529 17.569 20.078v243.451c0 30.118 25.098 57.725 55.216 57.725s55.216-25.098 55.216-57.725c0 0 0-491.922 0-552.157s-10.039-263.529-271.059-263.529z" />
<glyph unicode="&#xe903;" horiz-adv-x="796" d="M0 410.074h109.985v-474.074h-109.985v474.074z" />
<glyph unicode="&#xe904;" horiz-adv-x="796" d="M227.556 592.119h109.985v-656.119h-109.985v656.119z" />
<glyph unicode="&#xe905;" horiz-adv-x="796" d="M455.111 777.956h109.985v-841.956h-109.985v841.956z" />
<glyph unicode="&#xe906;" horiz-adv-x="796" d="M686.459 960h109.985v-1024h-109.985v1024z" />
<glyph unicode="&#xe907;" horiz-adv-x="796" d="M0 410.074h109.985v-474.074h-109.985v474.074z" />
<glyph unicode="&#xe908;" horiz-adv-x="796" d="M227.556 592.119h109.985v-656.119h-109.985v656.119z" />
<glyph unicode="&#xe909;" horiz-adv-x="796" d="M455.111 777.956h109.985v-841.956h-109.985v841.956z" />
<glyph unicode="&#xe90a;" horiz-adv-x="796" d="M686.459 960h109.985v-1024h-109.985v1024z" />
<glyph unicode="&#xe90b;" horiz-adv-x="796" d="M0 410.074h109.985v-474.074h-109.985v474.074z" />
<glyph unicode="&#xe90c;" horiz-adv-x="796" d="M227.556 592.119h109.985v-656.119h-109.985v656.119z" />
<glyph unicode="&#xe90d;" horiz-adv-x="796" d="M455.111 777.956h109.985v-841.956h-109.985v841.956z" />
<glyph unicode="&#xe90e;" horiz-adv-x="796" d="M686.459 960h109.985v-1024h-109.985v1024z" />
<glyph unicode="&#xe90f;" glyph-name="network-0" data-tags="no-signal" horiz-adv-x="796" d="M0 410.074h109.985v-474.074h-109.985v474.074zM227.556 592.119h109.985v-656.119h-109.985v656.119zM455.111 777.956h109.985v-841.956h-109.985v841.956zM686.459 960h109.985v-1024h-109.985v1024z" />
</font>
</defs>
</svg>
